# xmcd CD database file
#
# Track frame offsets:
#	150
#	28365
#	42425
#	79207
#	100172
#	124145
#	143750
#	156950
#	187725
#	204790
#	223692
#	238915
#
# Disc length: 3461 seconds
#
# Revision: 2
# Processed by: cddbd v1.4PL0 Copyright (c) Steve Scherf et al.
# Submitted via: CDex 1.50
#
DISCID=a70d830c
DTITLE=The Smokin' Joe Kubek Band - Cryin' for the Moon
DYEAR=1900
DGENRE=Blues
TTITLE0=In One Hand (and Out The Other)
TTITLE1=You're My Brand
TTITLE2=You Haven't Hurt Me
TTITLE3=Corn Palace
TTITLE4=If It's The Last Thing I Do
TTITLE5=One More Song
TTITLE6=Cryin' For The Moon
TTITLE7=Changes Made
TTITLE8=We Had To Wait
TTITLE9=Step On It
TTITLE10=You're So Hard To Understand
TTITLE11=The Life You Save (Could Be Mine)
EXTD=
EXTT0=
EXTT1=
EXTT2=
EXTT3=
EXTT4=
EXTT5=
EXTT6=
EXTT7=
EXTT8=
EXTT9=
EXTT10=
EXTT11=
PLAYORDER=
